<svg xmlns="http://www.w3.org/2000/svg" xmlns:xlink="http://www.w3.org/1999/xlink" width="1808.099" height="1885.22" viewBox="0.3 0.8 316.5 329.536"><linearGradient id="a"><stop offset=".043" stop-color="#5f2385"/><stop offset=".969" stop-color="#9452ba"/></linearGradient><linearGradient xlink:href="#a" id="b" x1="202.304" x2="668.831" y1="234.133" y2="148.758" gradientTransform="scale(.5849 1.7097)" gradientUnits="userSpaceOnUse"/><linearGradient xlink:href="#a" id="c" x1="221.979" x2="631.285" y1="241.578" y2="153.999" gradientTransform="scale(.6 1.66667)" gradientUnits="userSpaceOnUse"/><linearGradient id="d" x1="246.858" x2="410.224" y1="63.081" y2="185.241" gradientTransform="scale(.6 1.66667)" gradientUnits="userSpaceOnUse"><stop offset=".233" stop-color="#4f1374"/><stop offset=".841" stop-color="#5f2385"/></linearGradient><path fill="url(#b)" d="M254 323.2c1.2 4 2.3 6.7 2.6 7.6-.2-.4-.5-1.3-.9-2.5z" style="fill:url(#b);fill-rule:evenodd" transform="translate(-3.6 -.307)"/><path fill="url(#c)" d="m256.6 330.8-.9-2.5c.5 1.2.8 2.1.9 2.5z" style="fill:url(#c);fill-rule:evenodd" transform="translate(-3.6 -.307)"/><path fill="url(#d)" d="m256.6 330.8-.9-2.5c.5 1.2.8 2.1.9 2.5z" style="fill:url(#d);fill-rule:evenodd" transform="translate(-3.6 -.307)"/><path fill="#602385" d="M320.2 137.8c0-.9-.1-1.8-.1-2.8v-.1c-.1-1-.2-1.9-.3-2.9 0-.2-.1-.5-.1-.7-.1-.9-.3-1.8-.4-2.7v-.2c-.2-1-.4-1.9-.6-2.9-.1-.3-.1-.6-.2-.8-.2-.8-.4-1.6-.6-2.5-.1-.2-.1-.4-.2-.6-.3-.9-.6-1.9-.9-2.8-.1-.4-.2-.8-.4-1.1-.2-.7-.4-1.3-.7-2-.2-.6-.4-1.1-.6-1.7-.2-.6-.5-1.3-.8-1.9-.2-.5-.5-1.1-.7-1.7-.2-.4-.3-.8-.5-1.1-13.9-31.8-46.4-67.7-83.2-98.4-.6-.5-1.2-1-1.9-1.6-.6-.5-1.1-.9-1.7-1.4-1.2-1-2.5-2-3.7-3-.3-.2-.6-.4-.8-.7-1.6-1.3-4 0-3.8 2 2 30.8 1.2 60.7-2.6 85.2-4.7 31-17.1 66.9-33.7 99.3-.1.2-.2.3-.3.5.1-.2.2-.3.2-.5-31.6-3.7-63.6-11.5-90.2-22.3-3.8-1.5-7.5-3.1-11-4.8-10.2-4.8-21-10.7-32.1-17.5-.2-.1-.4-.2-.6-.4-.2-.1-.3-.2-.5-.3-12.9-8-26.2-17.1-39.2-27-1.6-1.3-4 0-3.8 2.1 0 .4.1.7.1 1.1 0 .4.1.7.1 1.1.1.8.1 1.6.2 2.4 0 .2 0 .3.1.5 0 .4.1.7.1 1.1.2 1.7.3 3.3.5 5 .1.8.2 1.5.3 2.3.2 1.9.4 3.8.7 5.8l.3 2.1v.4c.3 2.4.6 4.7 1 7.1 0 .2 0 .5.1.7l.6 3.9c.1.3.1.7.2 1 .2 1.1.4 2.3.6 3.4 0 .2.1.4.1.6.4 2.5.8 4.9 1.3 7.4l.3 1.5c.4 1.9.7 3.9 1.1 5.8.1.5.2 1 .3 1.4.1.3.1.5.2.8.5 2.3 1 4.7 1.5 7 .1.4.2.9.3 1.3 1.8 7.9 3.9 15.6 6.1 22.9v.1c.3.9.6 1.9.9 2.8.1.4.3.8.4 1.3.2.7.4 1.3.7 2 .3.9.6 1.7.9 2.6.1.4.3.9.5 1.3.4 1.2.9 2.5 1.3 3.7 0 .1.1.2.1.3 1.6 4.3 3.3 8.5 5 12.5.1.1.1.3.2.4.5 1.2 1.1 2.4 1.6 3.5.1.1.1.3.2.4.6 1.3 1.2 2.5 1.8 3.8.8 1.5 1.5 3 2.3 4.4 0 .1 0 .1.1.2.1.3.3.5.4.8.6 1 1.1 2 1.7 3 .1.2.2.4.3.5.7 1.2 1.4 2.3 2.1 3.4 0 .1.1.1.1.2.1.2.2.3.3.5.6.9 1.2 1.8 1.7 2.7.4.5.7 1 1 1.5.3.4.7.9 1 1.3.1.2.2.3.4.5.3.4.6.8.9 1.1.1.1.2.3.3.4.3.4.7.8 1 1.2l1.5 1.8c1.1 1.3 2.3 2.6 3.5 3.8l.6.6c.6.6 1.2 1.1 1.8 1.7l.1.1c.4.4.8.7 1.3 1.1.6.5 1.2 1 1.7 1.5.5.4.9.7 1.4 1.1.6.5 1.2.9 1.8 1.4.5.3.9.6 1.4.9.6.4 1.3.8 2 1.2.4.3.9.5 1.4.8.8.4 1.5.7 2.3 1.1.4.1.8.4 1.1.5.6.3 1.1.5 1.7.7l1.8.6c.7.2 1.4.5 2 .8.1 0 .2.1.3.1 55.1 16.5 110-3.8 175.5 42.8 1.8 1.3 6.1 4.5 6.1 4.5-6-86.1 43.7-120.3 61.3-176.7 0-.1.1-.2.1-.4.1-.8.3-1.7.6-2.6.4-1.3.7-2.6.9-3.9v-.2c.1-.8.3-1.6.4-2.4 0-.2.1-.5.1-.7.1-.9.2-1.7.2-2.6v-2.9c-.2 0-.2-.2-.2-.4z" style="fill-rule:evenodd" transform="translate(-3.6 -.307)"/><path fill="#76389c" d="M255.8 328.3c-4.5-13.5-22.3-72.9-12.8-136.2-19 1.7-40 1.1-61.3-1.4-9.8 19.1-21 37-33.1 51.9 61.9 29.1 103.2 81.8 108 88.1-.3-.9-1.4-3.6-2.6-7.6z" style="fill-rule:evenodd" transform="translate(-3.6 -.307)"/><path fill="#9967b6" d="M243 192.1c.9-6.1 2.1-12.2 3.5-18.3C269.7 76 217.6 1 217.6 1c2.4 32.7 1.8 64.6-2.2 90.5-4.7 31-17.1 66.9-33.7 99.3 21.3 2.4 42.3 3 61.3 1.3z" style="fill-rule:evenodd" transform="translate(-3.6 -.307)"/><path fill="#8e62aa" d="M131.4 235.4c5.9 2.2 11.7 4.6 17.2 7.3 12-14.9 23.3-32.8 33.1-51.9-31.6-3.7-63.6-11.5-90.2-22.3-3.8-1.5-7.5-3.1-11-4.8-10.2-4.8-21-10.7-32.1-17.5-.2-.1-.4-.2-.6-.4-.2-.1-.3-.2-.5-.3-14.3-8.8-29.1-19.1-43.4-30.3-.1 0 33.2 85.2 127.5 120.2z" style="fill-rule:evenodd" transform="translate(-3.6 -.307)"/><path fill="#602385" d="M148.7 242.7c-20.1 25-42.4 41.6-63.6 41.8-1.8 0-3.6-.1-5.3-.3-1.2-.1-2.3-.3-3.5-.6-1.2-.3-2.3-.6-3.5-.9.8.3 1.5.5 2.1.8 56.8 17.1 113.4-5.1 181.7 47.3-4.7-6.3-46-59-107.9-88.1z" style="fill-rule:evenodd" transform="translate(-3.6 -.307)"/><path fill="#642b87" d="M79.8 284.2c1.8.2 3.5.3 5.3.3 21.2-.2 43.5-16.8 63.6-41.8-5.6-2.6-11.3-5.1-17.2-7.3C37.2 200.4 3.9 115.2 3.9 115.2c.2 2.2.3 4.3.5 6.5 0 .4.1.7.1 1.1.1.8.1 1.6.2 2.4 0 .2 0 .3.1.5 0 .4.1.7.1 1.1.2 1.7.3 3.3.5 5 .1.8.2 1.5.3 2.3.2 1.9.4 3.8.7 5.8l.3 2.1v.4c.3 2.4.6 4.7 1 7.1 0 .2 0 .5.1.7l.6 3.9c.1.3.1.7.2 1 .2 1.1.4 2.3.6 3.4 0 .2.1.4.1.6.4 2.5.8 4.9 1.3 7.4l.3 1.5c.4 1.9.7 3.9 1.1 5.8.1.5.2 1 .3 1.4.1.3.1.5.2.8.5 2.3 1 4.7 1.5 7 .1.4.2.9.3 1.3 1.8 7.9 3.9 15.6 6.1 22.9v.1c.3.9.6 1.9.9 2.8.1.4.3.8.4 1.3.2.7.4 1.3.7 2 .3.9.6 1.7.9 2.6.1.4.3.9.5 1.3.4 1.2.9 2.5 1.3 3.7 0 .1.1.2.1.3 1.6 4.3 3.3 8.5 5 12.5.1.1.1.3.2.4.5 1.2 1.1 2.4 1.6 3.5.1.1.1.3.2.4.6 1.3 1.2 2.5 1.8 3.8.8 1.5 1.5 3 2.3 4.4 0 .1 0 .1.1.2.1.3.3.5.4.8.6 1 1.1 2 1.7 3 .1.2.2.4.3.5.7 1.2 1.4 2.3 2.1 3.4 0 .1.1.1.1.2.1.2.2.3.3.5.6.9 1.2 1.8 1.7 2.7.4.5.7 1 1 1.5.3.4.7.9 1 1.3.1.2.2.3.4.5.3.4.6.8.9 1.1.1.1.2.3.3.4.3.4.7.8 1 1.2l1.5 1.8c1.1 1.3 2.3 2.6 3.5 3.8l.6.6c.6.6 1.2 1.1 1.8 1.7l.1.1c.4.4.8.7 1.3 1.1.6.5 1.2 1 1.7 1.5.5.4.9.7 1.4 1.1.6.5 1.2.9 1.8 1.4.5.3.9.6 1.4.9.6.4 1.3.8 2 1.2.4.3.9.5 1.4.8.8.4 1.5.7 2.3 1.1.4.1.8.4 1.1.5.6.3 1.1.5 1.7.7l1.8.6c1.2.4 2.3.7 3.5.9.9.5 2.1.7 3.3.8z" style="fill-rule:evenodd" transform="translate(-3.6 -.307)"/><path fill="#672a8e" d="M243 192.1c-9.5 63.3 8.3 122.7 12.8 136.2l.9 2.5c-6-86.2 43.8-120.3 61.4-176.9.1-.8.3-1.8.6-2.8-7.2 25-37.4 37.6-75.7 41z" style="fill-rule:evenodd" transform="translate(-3.6 -.307)"/><path fill="#69308c" d="M319.6 147.1c.1-.8.3-1.6.4-2.4 0-.2.1-.5.1-.7.1-.9.2-1.7.2-2.6v-3.6c0-.9-.1-1.8-.1-2.8v-.1c-.1-1-.2-1.9-.3-2.9 0-.2-.1-.5-.1-.7-.1-.9-.3-1.8-.4-2.7v-.2c-.2-1-.4-1.9-.6-2.9-.1-.3-.1-.6-.2-.8-.2-.8-.4-1.6-.6-2.5-.1-.2-.1-.4-.2-.6-.3-.9-.6-1.9-.9-2.8-.1-.4-.2-.8-.4-1.1-.2-.7-.4-1.3-.7-2-.2-.6-.4-1.1-.6-1.7-.2-.6-.5-1.3-.8-1.9-.2-.5-.5-1.1-.7-1.7-.2-.4-.3-.8-.5-1.1-13.9-31.8-46.4-67.7-83.2-98.4-.6-.5-1.2-1-1.9-1.6-.6-.5-1.1-.9-1.7-1.4-1.2-1-2.5-2-3.7-3-.3-.2-.6-.4-.8-.7-1.4-1.1-2.8-2.3-4.3-3.4 0 0 52.1 75 28.9 172.9-1.4 6.1-2.6 12.2-3.5 18.3 38.3-3.4 68.5-16 75.6-41 .4-1.3.7-2.6.9-3.9.1.1.1 0 .1 0z" style="fill-rule:evenodd" transform="translate(-3.6 -.307)"/></svg>