<svg xmlns="http://www.w3.org/2000/svg" width="464.09" height="570.42" viewBox="0 0 74.247 143.474"><path fill="#A18072" d="M82.186 1.25c-29.244 0-34.73 41.876-18.278 41.876 16.448 0 47.522-41.876 18.278-41.876zM33.628 37.937c8.759.538 18.37-33.607 1.906-31.46-16.457 2.148-10.67 30.922-1.906 31.46zM-6.516 59.154c6.23-2.757.803-29.723-9.79-22.369-10.59 7.356 3.56 25.125 9.79 22.37zM11.037 45.04c7.416-1.52 7.823-32.105-5.402-26.618-13.228 5.488-2.008 28.14 5.402 26.617zm38.726 68.442c1.315 10.103-7.373 15.092-15.881 8.579-27.086-20.733 44.847-31.076 40.105-59.402-3.935-23.511-75.689-16.273-83.86 20.516-5.53 24.882 22.767 59.403 52.293 59.403 14.526 0 31.28-13.186 34.414-29.891 2.394-12.738-28.17-7.634-27.071.795z"/></svg>