<svg xmlns="http://www.w3.org/2000/svg" xml:space="preserve" width="576.095" height="593.844" viewBox="0 0 432.071 445.383"><path d="M310.014 24.315c-12.365.115-23.298 1.743-31.675 3.483 23.171 10.22 40.617 26.061 52.927 41.798 10.12 12.94 16.918 25.783 21.01 35.615 2.046 4.916 3.414 9.05 4.195 12.265.391 1.608.65 2.936.728 4.38.04.722.089 1.44-.21 2.68-.007.03-.025.074-.033.106.596 16.38-3.542 27.332-4.039 42.902a6.233 6.233 0 0 0 0 .002 6.233 6.233 0 0 0 0 .001 6.233 6.233 0 0 0 0 .002c-.365 11.24 2.51 24.44 3.22 38.853.669 13.557-.879 28.451-9.704 43.077.73.9 1.425 1.763 2.132 2.634 23.241-36.632 39.937-77.208 48.86-111.756 4.804-18.598 7.351-35.46 7.557-48.812.207-13.351-2.294-23.041-5.455-27.08-25.697-32.836-60.754-40.417-89.513-40.15zm-83.993 4.749c-23.053-.378-39.408 6.354-51.712 16.598-12.304 10.244-20.542 24.276-25.969 38.654-6.326 16.765-8.687 33.563-9.596 44.8.106-.06.202-.12.31-.179 6.625-3.69 15.327-7.42 24.64-9.568 4.655-1.074 9.49-1.78 14.296-1.777 4.807.002 9.589.712 14.137 2.468 9.098 3.513 16.611 11.83 19.332 24.41 13.06 60.397-4.061 82.866-10.365 99.83v-.005c-2.662 7.174-4.837 13.415-6.132 18.722a15.22 15.22 0 0 1 2.369-.425c4.452-.389 7.945 1.13 10.02 1.99 6.341 2.628 10.72 8.155 13.061 14.472a26.296 26.296 0 0 1 1.412 5.713 6.233 6.233 0 0 1 .271 1.891c-.689 24.627-.6 49.362.258 69.33.429 9.984 1.053 18.783 1.849 25.71.796 6.924 1.932 12.185 2.644 13.967v.001c2.372 5.93 5.845 13.696 12.117 18.979 6.272 5.283 15.256 8.805 31.689 5.285 14.249-3.055 23.04-7.314 28.907-13.412 5.867-6.099 9.371-14.591 11.615-27.604a6.233 6.233 0 0 0 0-.001c3.357-19.45 10.103-75.836 10.92-86.567-.365-8.003.82-14.167 3.384-18.866 2.642-4.842 6.715-7.778 10.251-9.37 1.742-.785 3.387-1.326 4.752-1.727-1.065-1.542-2.565-3.555-4.51-6.012-3.774-4.765-8.577-11.244-12.345-20.379-.402-.975-2.3-4.53-4.77-8.96-2.469-4.43-5.591-10.012-8.853-16.27-6.522-12.517-13.63-27.695-17.314-42.468-3.685-14.772-4.225-30.043 5.209-40.836 8.363-9.57 22.986-13.538 44.987-11.312-.637-1.964-1.03-3.535-2.117-6.146-3.685-8.855-10.004-20.813-19.321-32.725-18.635-23.824-48.806-47.447-95.426-48.211zm-122.454.999a128.145 128.145 0 0 0-9.928.173C74.904 31.31 57.193 36.744 44.52 50.168c-12.673 13.424-21.027 35.444-19.204 71.884a6.233 6.233 0 0 0 0 .002 6.233 6.233 0 0 0 0 .001c.345 6.893 3.363 26.231 8.508 49.191 5.144 22.96 12.417 49.988 21.193 73.859 8.776 23.871 19.385 44.631 29.5 54.461 5.056 4.915 9.471 6.893 13.487 6.723 4.016-.17 8.858-2.49 14.766-9.592 16.429-19.765 29.269-33.453 33.521-37.951-15.61-13.356-24.882-34.99-21.599-58.467 1.915-13.692 2.172-26.506 1.944-36.64-.224-9.983-.936-16.791-.931-20.872a6.233 6.233 0 0 1-.003-.008v-.08c0-.036-.004-.09-.003-.125a6.233 6.233 0 0 0 0-.001c0-.034.005-.06.006-.094-.023-.855-.76-31.461 10.971-62.544 5.218-13.827 12.96-27.842 24.56-39.217-12.168-3.973-34.546-10.165-57.67-10.635zm229.666 97.934c-14.22-.266-22.006 3.151-25.95 7.664-5.258 6.016-5.747 16.59-2.497 29.616 3.249 13.027 9.957 27.606 16.273 39.725 3.157 6.06 6.208 11.517 8.685 15.96 2.477 4.442 4.3 7.594 5.406 10.277 1.04 2.52 2.174 4.708 3.336 6.769 4.897-10.301 5.721-20.446 5.202-30.992-.643-13.027-3.668-26.364-3.229-39.871.505-15.828 3.825-25.984 4.075-38.226-4.1-.505-7.95-.86-11.301-.922zm-155.307 2.12c-3.61 0-7.506.493-11.432 1.398-7.851 1.811-15.72 5.162-21.38 8.313-2.829 1.576-5.124 3.121-6.474 4.219-.228.185-.227.211-.395.365.093 2.71.635 9.278.852 18.947.238 10.577-.018 24.052-2.06 38.647-4.434 31.712 18.57 57.968 45.617 58.005 1.573-6.508 4.172-13.09 6.755-20.052a6.233 6.233 0 0 1 0-.004c7.54-20.289 22.359-35.08 9.867-92.85-2.04-9.434-6.082-13.27-11.64-15.416-2.779-1.073-6.1-1.57-9.71-1.571zm146.836 3.79c.316-.006.627-.004.933.003 1.221.03 2.35.168 3.343.403.991.235 1.852.563 2.548 1.044.697.482 1.264 1.177 1.385 2.044.007.05-.016.095-.012.143l.022-.001v.001l-.022.003c.075.848-.193 1.65-.64 2.514-.473.914-1.165 1.877-2.04 2.795-1.748 1.837-4.236 3.516-7.171 3.923-2.932.408-5.608-.571-7.585-1.91-.988-.67-1.81-1.43-2.426-2.195-.615-.764-1.049-1.508-1.166-2.338v-.005c-.118-.867.237-1.689.777-2.343.539-.653 1.277-1.206 2.167-1.703 1.78-.995 4.193-1.759 6.92-2.139a24.922 24.922 0 0 1 2.967-.239zm-145.05 3.119c.991.019 2.025.1 3.089.249 2.839.395 5.353 1.178 7.289 2.26.968.541 1.803 1.151 2.46 1.951.659.8 1.169 1.926.998 3.15-.16 1.15-.695 1.988-1.384 2.844-.688.857-1.579 1.68-2.65 2.406-2.142 1.451-5.065 2.53-8.308 2.078-3.248-.45-5.907-2.268-7.78-4.235-.937-.983-1.683-2.013-2.21-3.033-.527-1.018-.936-1.982-.757-3.276v-.01l.254-1.787h.58c.297-.37.625-.714.984-.962.852-.59 1.822-.946 2.9-1.202 1.08-.255 2.275-.4 3.557-.432.32-.007.647-.007.977-.001zm168.036 136.219c-.013.004-.03.012-.042.017-2.735.964-4.98 1.365-6.86 2.212-1.881.847-3.224 1.772-4.426 3.976-1.166 2.138-2.173 5.905-1.879 12.345.328.258 1.215.802 2.732 1.273 3.185.99 8.508 1.596 14.426 1.531 11.834-.13 26.401-2.899 34.145-6.492 7.372-3.423 13.644-7.95 17.458-11.398-25.837 5.333-40.446 3.923-49.386.223a24.276 24.276 0 0 1-6.168-3.687zm-149.333 1.765c-.987.086-2.417.403-5.163 3.476a6.233 6.233 0 0 1-.004.004c-6.465 7.222-8.706 11.772-14.035 16.018-5.329 4.247-12.254 6.502-26.074 9.347-4.369.901-6.865 1.866-8.537 2.649.53.43.476.513 1.295.96 2.007 1.1 4.61 2.085 6.699 2.607a6.233 6.233 0 0 0 .001 0c5.958 1.49 15.693 3.208 25.872 1.466 10.18-1.741 20.766-6.61 29.808-19.271a6.233 6.233 0 0 0 .002-.002c1.553-2.174 1.727-5.413.444-8.877-1.284-3.463-4.137-6.456-6.145-7.289-1.959-.811-3.177-1.174-4.163-1.088z" style="clip-rule:nonzero;fill:#b39283;fill-rule:nonzero;stroke:none;stroke-width:12.4651;stroke-linecap:round;stroke-linejoin:round;stroke-miterlimit:4"/></svg>